<?xml version="1.0" encoding="UTF-8" standalone="no"?>
<!DOCTYPE svg PUBLIC "-//W3C//DTD SVG 1.1//EN"
 "http://www.w3.org/Graphics/SVG/1.1/DTD/svg11.dtd">
<!-- Generated by graphviz version 2.43.0 (0)
 -->
<!-- Title: ilds_flow Pages: 1 -->
<svg width="581pt" height="98pt"
 viewBox="0.00 0.00 581.00 98.00" xmlns="http://www.w3.org/2000/svg" xmlns:xlink="http://www.w3.org/1999/xlink">
<g id="graph0" class="graph" transform="scale(1 1) rotate(0) translate(4 94)">
<title>ilds_flow</title>
<!-- input -->
<g id="node1" class="node">
<title>input</title>
<polygon fill="#a9cce3" stroke="black" points="83,-90 0,-90 0,-54 83,-54 83,-90"/>
<text text-anchor="middle" x="41.5" y="-68.3" font-family="Times,serif" font-size="14.00">Integer n</text>
</g>
<!-- digits -->
<g id="node3" class="node">
<title>digits</title>
<polygon fill="#d4e6f1" stroke="black" points="240,-64 119,-64 119,-26 240,-26 240,-64"/>
<text text-anchor="middle" x="179.5" y="-48.8" font-family="Times,serif" font-size="14.00">Extract base&#45;b</text>
<text text-anchor="middle" x="179.5" y="-33.8" font-family="Times,serif" font-size="14.00">digits</text>
</g>
<!-- input&#45;&gt;digits -->
<g id="edge1" class="edge">
<title>input&#45;&gt;digits</title>
<path fill="none" stroke="black" d="M83.3,-63.9C91.43,-62.29 100.18,-60.55 108.97,-58.8"/>
<polygon fill="black" stroke="black" points="109.74,-62.22 118.87,-56.84 108.38,-55.35 109.74,-62.22"/>
</g>
<!-- base -->
<g id="node2" class="node">
<title>base</title>
<polygon fill="#d4e6f1" stroke="black" points="74,-36 9,-36 9,0 74,0 74,-36"/>
<text text-anchor="middle" x="41.5" y="-14.3" font-family="Times,serif" font-size="14.00">Base b</text>
</g>
<!-- base&#45;&gt;digits -->
<g id="edge2" class="edge">
<title>base&#45;&gt;digits</title>
<path fill="none" stroke="black" d="M74.04,-24.26C84.46,-26.33 96.51,-28.72 108.63,-31.13"/>
<polygon fill="black" stroke="black" points="108.31,-34.63 118.8,-33.15 109.67,-27.77 108.31,-34.63"/>
</g>
<!-- factor -->
<g id="node4" class="node">
<title>factor</title>
<polygon fill="#d4e6f1" stroke="black" points="434,-64 276,-64 276,-26 434,-26 434,-64"/>
<text text-anchor="middle" x="355" y="-48.8" font-family="Times,serif" font-size="14.00">Multiply by</text>
<text text-anchor="middle" x="355" y="-33.8" font-family="Times,serif" font-size="14.00">precomputed factor</text>
</g>
<!-- digits&#45;&gt;factor -->
<g id="edge3" class="edge">
<title>digits&#45;&gt;factor</title>
<path fill="none" stroke="black" d="M240.21,-45C248.45,-45 257.06,-45 265.68,-45"/>
<polygon fill="black" stroke="black" points="265.8,-48.5 275.8,-45 265.8,-41.5 265.8,-48.5"/>
</g>
<!-- sum -->
<g id="node5" class="node">
<title>sum</title>
<polygon fill="#7fb3d8" stroke="black" points="573,-64 470,-64 470,-26 573,-26 573,-64"/>
<text text-anchor="middle" x="521.5" y="-48.8" font-family="Times,serif" font-size="14.00">Sum results</text>
<text text-anchor="middle" x="521.5" y="-33.8" font-family="Times,serif" font-size="14.00">phi_b(n)</text>
</g>
<!-- factor&#45;&gt;sum -->
<g id="edge4" class="edge">
<title>factor&#45;&gt;sum</title>
<path fill="none" stroke="black" d="M434.4,-45C442.89,-45 451.44,-45 459.68,-45"/>
<polygon fill="black" stroke="black" points="459.93,-48.5 469.93,-45 459.93,-41.5 459.93,-48.5"/>
</g>
</g>
</svg>
