<?xml version="1.0" encoding="UTF-8" standalone="no"?>
<!DOCTYPE svg PUBLIC "-//W3C//DTD SVG 1.1//EN"
 "http://www.w3.org/Graphics/SVG/1.1/DTD/svg11.dtd">
<!-- Generated by graphviz version 2.43.0 (0)
 -->
<!-- Title: Graphical Class Hierarchy Pages: 1 -->
<svg width="510pt" height="939pt"
 viewBox="0.00 0.00 510.00 939.00" xmlns="http://www.w3.org/2000/svg" xmlns:xlink="http://www.w3.org/1999/xlink">
<g id="graph0" class="graph" transform="scale(1 1) rotate(0) translate(4 935)">
<title>Graphical Class Hierarchy</title>
<!-- Node0 -->
<g id="Node000000" class="node">
<title>Node0</title>
<g id="a_Node000000"><a xlink:href="classlds_1_1GeneratorBase.html" target="_top" xlink:title="CRTP base implementing the sequence generator protocol.">
<polygon fill="white" stroke="#666666" points="110,-600.5 0,-600.5 0,-570.5 110,-570.5 110,-600.5"/>
<text text-anchor="start" x="8" y="-588.5" font-family="Helvetica,sans-Serif" font-size="10.00">lds::GeneratorBase</text>
<text text-anchor="middle" x="55" y="-577.5" font-family="Helvetica,sans-Serif" font-size="10.00">&lt; Derived, Value &gt;</text>
</a>
</g>
</g>
<!-- Node1 -->
<g id="Node000001" class="node">
<title>Node1</title>
<g id="a_Node000001"><a xlink:href="classlds_1_1GeneratorIterable.html" target="_top" xlink:title=" ">
<polygon fill="white" stroke="#666666" points="319,-931 146,-931 146,-890 319,-890 319,-931"/>
<text text-anchor="start" x="154" y="-919" font-family="Helvetica,sans-Serif" font-size="10.00">lds::GeneratorIterable</text>
<text text-anchor="start" x="154" y="-908" font-family="Helvetica,sans-Serif" font-size="10.00">&lt; Halton&lt; Base1, Base2</text>
<text text-anchor="middle" x="232.5" y="-897" font-family="Helvetica,sans-Serif" font-size="10.00"> &gt;, array&lt; unsigned long, 2 &gt; &gt;</text>
</a>
</g>
</g>
<!-- Node0&#45;&gt;Node1 -->
<g id="edge1_Node000000_Node000001" class="edge">
<title>Node0&#45;&gt;Node1</title>
<g id="a_edge1_Node000000_Node000001"><a xlink:title=" ">
<path fill="none" stroke="#63b8ff" d="M56.32,-610.98C58.41,-667.51 71.38,-804.46 146,-881.5 149.05,-884.65 152.46,-887.46 156.11,-889.97"/>
<polygon fill="#63b8ff" stroke="#63b8ff" points="59.81,-610.69 56.03,-600.79 52.81,-610.89 59.81,-610.69"/>
</a>
</g>
</g>
<!-- Node3 -->
<g id="Node000003" class="node">
<title>Node3</title>
<g id="a_Node000003"><a xlink:href="classlds_1_1GeneratorIterable.html" target="_top" xlink:title=" ">
<polygon fill="white" stroke="#666666" points="308.5,-872 156.5,-872 156.5,-831 308.5,-831 308.5,-872"/>
<text text-anchor="start" x="164.5" y="-860" font-family="Helvetica,sans-Serif" font-size="10.00">lds::GeneratorIterable</text>
<text text-anchor="start" x="164.5" y="-849" font-family="Helvetica,sans-Serif" font-size="10.00">&lt; VdCorput&lt; 2 &gt;, unsigned</text>
<text text-anchor="middle" x="232.5" y="-838" font-family="Helvetica,sans-Serif" font-size="10.00"> long &gt;</text>
</a>
</g>
</g>
<!-- Node0&#45;&gt;Node3 -->
<g id="edge3_Node000000_Node000003" class="edge">
<title>Node0&#45;&gt;Node3</title>
<g id="a_edge3_Node000000_Node000003"><a xlink:title=" ">
<path fill="none" stroke="#63b8ff" d="M58.56,-610.8C64.76,-658.8 84.88,-763.53 146,-822.5 149.27,-825.66 152.9,-828.47 156.76,-830.98"/>
<polygon fill="#63b8ff" stroke="#63b8ff" points="62.02,-610.18 57.36,-600.67 55.07,-611.01 62.02,-610.18"/>
</a>
</g>
</g>
<!-- Node4 -->
<g id="Node000004" class="node">
<title>Node4</title>
<g id="a_Node000004"><a xlink:href="classlds_1_1GeneratorIterable.html" target="_top" xlink:title=" ">
<polygon fill="white" stroke="#666666" points="301,-813 164,-813 164,-772 301,-772 301,-813"/>
<text text-anchor="start" x="172" y="-801" font-family="Helvetica,sans-Serif" font-size="10.00">lds::GeneratorIterable</text>
<text text-anchor="start" x="172" y="-790" font-family="Helvetica,sans-Serif" font-size="10.00">&lt; Circle&lt; 2 &gt;, std::array</text>
<text text-anchor="middle" x="232.5" y="-779" font-family="Helvetica,sans-Serif" font-size="10.00">&lt; double, 2 &gt; &gt;</text>
</a>
</g>
</g>
<!-- Node0&#45;&gt;Node4 -->
<g id="edge4_Node000000_Node000004" class="edge">
<title>Node0&#45;&gt;Node4</title>
<g id="a_edge4_Node000000_Node000004"><a xlink:title=" ">
<path fill="none" stroke="#63b8ff" d="M62.06,-610.37C72.64,-648.64 98.07,-721.9 146,-763.5 151.33,-768.12 157.42,-772.02 163.85,-775.3"/>
<polygon fill="#63b8ff" stroke="#63b8ff" points="65.41,-609.33 59.46,-600.55 58.64,-611.12 65.41,-609.33"/>
</a>
</g>
</g>
<!-- Node5 -->
<g id="Node000005" class="node">
<title>Node5</title>
<g id="a_Node000005"><a xlink:href="classlds_1_1GeneratorIterable.html" target="_top" xlink:title=" ">
<polygon fill="white" stroke="#666666" points="304,-754 161,-754 161,-713 304,-713 304,-754"/>
<text text-anchor="start" x="169" y="-742" font-family="Helvetica,sans-Serif" font-size="10.00">lds::GeneratorIterable</text>
<text text-anchor="start" x="169" y="-731" font-family="Helvetica,sans-Serif" font-size="10.00">&lt; Disk&lt; 2, 3 &gt;, std::array</text>
<text text-anchor="middle" x="232.5" y="-720" font-family="Helvetica,sans-Serif" font-size="10.00">&lt; double, 2 &gt; &gt;</text>
</a>
</g>
</g>
<!-- Node0&#45;&gt;Node5 -->
<g id="edge5_Node000000_Node000005" class="edge">
<title>Node0&#45;&gt;Node5</title>
<g id="a_edge5_Node000000_Node000005"><a xlink:title=" ">
<path fill="none" stroke="#63b8ff" d="M68.47,-609.69C83.46,-636.49 111.02,-679.25 146,-704.5 150.58,-707.8 155.56,-710.75 160.73,-713.38"/>
<polygon fill="#63b8ff" stroke="#63b8ff" points="71.38,-607.71 63.53,-600.6 65.23,-611.05 71.38,-607.71"/>
</a>
</g>
</g>
<!-- Node6 -->
<g id="Node000006" class="node">
<title>Node6</title>
<g id="a_Node000006"><a xlink:href="classlds_1_1GeneratorIterable.html" target="_top" xlink:title=" ">
<polygon fill="white" stroke="#666666" points="296,-695 169,-695 169,-654 296,-654 296,-695"/>
<text text-anchor="start" x="177" y="-683" font-family="Helvetica,sans-Serif" font-size="10.00">lds::GeneratorIterable</text>
<text text-anchor="start" x="177" y="-672" font-family="Helvetica,sans-Serif" font-size="10.00">&lt; Halton&lt; 2, 3 &gt;, std</text>
<text text-anchor="middle" x="232.5" y="-661" font-family="Helvetica,sans-Serif" font-size="10.00">::array&lt; double, 2 &gt; &gt;</text>
</a>
</g>
</g>
<!-- Node0&#45;&gt;Node6 -->
<g id="edge6_Node000000_Node000006" class="edge">
<title>Node0&#45;&gt;Node6</title>
<g id="a_edge6_Node000000_Node000006"><a xlink:title=" ">
<path fill="none" stroke="#63b8ff" d="M83.91,-606.88C101.13,-619.34 124.05,-634.69 146,-645.5 153.17,-649.03 160.88,-652.31 168.62,-655.29"/>
<polygon fill="#63b8ff" stroke="#63b8ff" points="85.59,-603.77 75.47,-600.66 81.44,-609.41 85.59,-603.77"/>
</a>
</g>
</g>
<!-- Node7 -->
<g id="Node000007" class="node">
<title>Node7</title>
<g id="a_Node000007"><a xlink:href="classlds_1_1GeneratorIterable.html" target="_top" xlink:title=" ">
<polygon fill="white" stroke="#666666" points="296,-636 169,-636 169,-595 296,-595 296,-636"/>
<text text-anchor="start" x="177" y="-624" font-family="Helvetica,sans-Serif" font-size="10.00">lds::GeneratorIterable</text>
<text text-anchor="start" x="177" y="-613" font-family="Helvetica,sans-Serif" font-size="10.00">&lt; Sphere&lt; 2, 3 &gt;, std</text>
<text text-anchor="middle" x="232.5" y="-602" font-family="Helvetica,sans-Serif" font-size="10.00">::array&lt; double, 3 &gt; &gt;</text>
</a>
</g>
</g>
<!-- Node0&#45;&gt;Node7 -->
<g id="edge7_Node000000_Node000007" class="edge">
<title>Node0&#45;&gt;Node7</title>
<g id="a_edge7_Node000000_Node000007"><a xlink:title=" ">
<path fill="none" stroke="#63b8ff" d="M120.34,-596.5C136.22,-599.21 153.2,-602.11 168.99,-604.81"/>
<polygon fill="#63b8ff" stroke="#63b8ff" points="120.53,-592.98 110.09,-594.75 119.36,-599.88 120.53,-592.98"/>
</a>
</g>
</g>
<!-- Node8 -->
<g id="Node000008" class="node">
<title>Node8</title>
<g id="a_Node000008"><a xlink:href="classlds_1_1GeneratorIterable.html" target="_top" xlink:title=" ">
<polygon fill="white" stroke="#666666" points="312,-577 153,-577 153,-536 312,-536 312,-577"/>
<text text-anchor="start" x="161" y="-565" font-family="Helvetica,sans-Serif" font-size="10.00">lds::GeneratorIterable</text>
<text text-anchor="start" x="161" y="-554" font-family="Helvetica,sans-Serif" font-size="10.00">&lt; Sphere3Hopf&lt; 2, 3, 5</text>
<text text-anchor="middle" x="232.5" y="-543" font-family="Helvetica,sans-Serif" font-size="10.00"> &gt;, std::array&lt; double, 4 &gt; &gt;</text>
</a>
</g>
</g>
<!-- Node0&#45;&gt;Node8 -->
<g id="edge8_Node000000_Node000008" class="edge">
<title>Node0&#45;&gt;Node8</title>
<g id="a_edge8_Node000000_Node000008"><a xlink:title=" ">
<path fill="none" stroke="#63b8ff" d="M120.09,-574.91C130.71,-573.16 141.82,-571.32 152.75,-569.51"/>
<polygon fill="#63b8ff" stroke="#63b8ff" points="119.38,-571.48 110.09,-576.56 120.52,-578.39 119.38,-571.48"/>
</a>
</g>
</g>
<!-- Node9 -->
<g id="Node000009" class="node">
<title>Node9</title>
<g id="a_Node000009"><a xlink:href="classlds_1_1GeneratorIterable.html" target="_top" xlink:title=" ">
<polygon fill="white" stroke="#666666" points="308.5,-517.5 156.5,-517.5 156.5,-487.5 308.5,-487.5 308.5,-517.5"/>
<text text-anchor="start" x="164.5" y="-505.5" font-family="Helvetica,sans-Serif" font-size="10.00">lds::GeneratorIterable</text>
<text text-anchor="middle" x="232.5" y="-494.5" font-family="Helvetica,sans-Serif" font-size="10.00">&lt; VdCorput&lt; 2 &gt;, double &gt;</text>
</a>
</g>
</g>
<!-- Node0&#45;&gt;Node9 -->
<g id="edge9_Node000000_Node000009" class="edge">
<title>Node0&#45;&gt;Node9</title>
<g id="a_edge9_Node000000_Node000009"><a xlink:title=" ">
<path fill="none" stroke="#63b8ff" d="M84.19,-564.32C101.35,-552.21 124.11,-537.5 146,-527.5 154.16,-523.77 163.01,-520.45 171.82,-517.54"/>
<polygon fill="#63b8ff" stroke="#63b8ff" points="81.85,-561.7 75.77,-570.37 85.93,-567.38 81.85,-561.7"/>
</a>
</g>
</g>
<!-- Node10 -->
<g id="Node000010" class="node">
<title>Node10</title>
<g id="a_Node000010"><a xlink:href="classlds_1_1GeneratorIterable.html" target="_top" xlink:title=" ">
<polygon fill="white" stroke="#666666" points="317.5,-469 147.5,-469 147.5,-428 317.5,-428 317.5,-469"/>
<text text-anchor="start" x="155.5" y="-457" font-family="Helvetica,sans-Serif" font-size="10.00">lds::GeneratorIterable</text>
<text text-anchor="start" x="155.5" y="-446" font-family="Helvetica,sans-Serif" font-size="10.00">&lt; VdCorput&lt; Base &gt;, unsigned</text>
<text text-anchor="middle" x="232.5" y="-435" font-family="Helvetica,sans-Serif" font-size="10.00"> long &gt;</text>
</a>
</g>
</g>
<!-- Node0&#45;&gt;Node10 -->
<g id="edge10_Node000000_Node000010" class="edge">
<title>Node0&#45;&gt;Node10</title>
<g id="a_edge10_Node000000_Node000010"><a xlink:title=" ">
<path fill="none" stroke="#63b8ff" d="M70.59,-561.58C86.41,-537.48 113.77,-500.76 146,-478.5 151.05,-475.01 156.54,-471.89 162.23,-469.11"/>
<polygon fill="#63b8ff" stroke="#63b8ff" points="67.55,-559.83 65.1,-570.14 73.44,-563.61 67.55,-559.83"/>
</a>
</g>
</g>
<!-- Node13 -->
<g id="Node000013" class="node">
<title>Node13</title>
<g id="a_Node000013"><a xlink:href="classlds_1_1GeneratorIterable.html" target="_top" xlink:title=" ">
<polygon fill="white" stroke="#666666" points="317.5,-409.5 147.5,-409.5 147.5,-379.5 317.5,-379.5 317.5,-409.5"/>
<text text-anchor="start" x="155.5" y="-397.5" font-family="Helvetica,sans-Serif" font-size="10.00">lds::GeneratorIterable</text>
<text text-anchor="middle" x="232.5" y="-386.5" font-family="Helvetica,sans-Serif" font-size="10.00">&lt; VdCorput&lt; Base &gt;, double &gt;</text>
</a>
</g>
</g>
<!-- Node0&#45;&gt;Node13 -->
<g id="edge13_Node000000_Node000013" class="edge">
<title>Node0&#45;&gt;Node13</title>
<g id="a_edge13_Node000000_Node000013"><a xlink:title=" ">
<path fill="none" stroke="#63b8ff" d="M62.91,-560.23C74.18,-523.73 100.03,-456.61 146,-419.5 150.81,-415.61 156.21,-412.33 161.89,-409.56"/>
<polygon fill="#63b8ff" stroke="#63b8ff" points="59.47,-559.5 59.99,-570.08 66.19,-561.48 59.47,-559.5"/>
</a>
</g>
</g>
<!-- Node18 -->
<g id="Node000018" class="node">
<title>Node18</title>
<g id="a_Node000018"><a xlink:href="classlds_1_1GeneratorIterable.html" target="_top" xlink:title=" ">
<polygon fill="white" stroke="#666666" points="296,-333 169,-333 169,-292 296,-292 296,-333"/>
<text text-anchor="start" x="177" y="-321" font-family="Helvetica,sans-Serif" font-size="10.00">lds::GeneratorIterable</text>
<text text-anchor="start" x="177" y="-310" font-family="Helvetica,sans-Serif" font-size="10.00">&lt; Circle&lt; Base &gt;, std</text>
<text text-anchor="middle" x="232.5" y="-299" font-family="Helvetica,sans-Serif" font-size="10.00">::array&lt; double, 2 &gt; &gt;</text>
</a>
</g>
</g>
<!-- Node0&#45;&gt;Node18 -->
<g id="edge18_Node000000_Node000018" class="edge">
<title>Node0&#45;&gt;Node18</title>
<g id="a_edge18_Node000000_Node000018"><a xlink:title=" ">
<path fill="none" stroke="#63b8ff" d="M61.47,-560.56C71.86,-517.79 97.82,-429.4 146,-370.5 158.26,-355.51 175.4,-342.84 191.11,-333.21"/>
<polygon fill="#63b8ff" stroke="#63b8ff" points="58.04,-559.87 59.16,-570.4 64.85,-561.46 58.04,-559.87"/>
</a>
</g>
</g>
<!-- Node20 -->
<g id="Node000020" class="node">
<title>Node20</title>
<g id="a_Node000020"><a xlink:href="classlds_1_1GeneratorIterable.html" target="_top" xlink:title="CRTP mixin adding STL iterator support to a GeneratorBase.">
<polygon fill="white" stroke="#666666" points="294,-185.5 171,-185.5 171,-155.5 294,-155.5 294,-185.5"/>
<text text-anchor="start" x="179" y="-173.5" font-family="Helvetica,sans-Serif" font-size="10.00">lds::GeneratorIterable</text>
<text text-anchor="middle" x="232.5" y="-162.5" font-family="Helvetica,sans-Serif" font-size="10.00">&lt; Derived, Value &gt;</text>
</a>
</g>
</g>
<!-- Node0&#45;&gt;Node20 -->
<g id="edge20_Node000000_Node000020" class="edge">
<title>Node0&#45;&gt;Node20</title>
<g id="a_edge20_Node000000_Node000020"><a xlink:title=" ">
<path fill="none" stroke="#63b8ff" d="M60.32,-560.42C70.15,-507.18 97.22,-379.85 146,-283.5 165.45,-245.09 198.26,-206.39 217.08,-185.74"/>
<polygon fill="#63b8ff" stroke="#63b8ff" points="56.86,-559.87 58.53,-570.33 63.75,-561.11 56.86,-559.87"/>
</a>
</g>
</g>
<!-- Node2 -->
<g id="Node000002" class="node">
<title>Node2</title>
<g id="a_Node000002"><a xlink:href="classilds_1_1Halton.html" target="_top" xlink:title="Halton sequence generator.">
<polygon fill="white" stroke="#666666" points="486.5,-925.5 370.5,-925.5 370.5,-895.5 486.5,-895.5 486.5,-925.5"/>
<text text-anchor="start" x="378.5" y="-913.5" font-family="Helvetica,sans-Serif" font-size="10.00">ilds::Halton&lt; Base1,</text>
<text text-anchor="middle" x="428.5" y="-902.5" font-family="Helvetica,sans-Serif" font-size="10.00"> Base2 &gt;</text>
</a>
</g>
</g>
<!-- Node1&#45;&gt;Node2 -->
<g id="edge2_Node000001_Node000002" class="edge">
<title>Node1&#45;&gt;Node2</title>
<g id="a_edge2_Node000001_Node000002"><a xlink:title=" ">
<path fill="none" stroke="#63b8ff" d="M329.37,-910.5C343.42,-910.5 357.5,-910.5 370.44,-910.5"/>
<polygon fill="#63b8ff" stroke="#63b8ff" points="329.16,-907 319.16,-910.5 329.16,-914 329.16,-907"/>
</a>
</g>
</g>
<!-- Node11 -->
<g id="Node000011" class="node">
<title>Node11</title>
<g id="a_Node000011"><a xlink:href="classilds_1_1VdCorput.html" target="_top" xlink:title=" ">
<polygon fill="white" stroke="#666666" points="497,-534 360,-534 360,-515 497,-515 497,-534"/>
<text text-anchor="middle" x="428.5" y="-522" font-family="Helvetica,sans-Serif" font-size="10.00">ilds::VdCorput&lt; Base1 &gt;</text>
</a>
</g>
</g>
<!-- Node10&#45;&gt;Node11 -->
<g id="edge11_Node000010_Node000011" class="edge">
<title>Node10&#45;&gt;Node11</title>
<g id="a_edge11_Node000010_Node000011"><a xlink:title=" ">
<path fill="none" stroke="#63b8ff" d="M308.76,-473.32C312.27,-474.97 315.7,-476.7 319,-478.5 336.8,-488.2 336.77,-497.64 355,-506.5 362,-509.9 369.7,-512.7 377.39,-514.98"/>
<polygon fill="#63b8ff" stroke="#63b8ff" points="309.9,-470 299.34,-469.14 307.06,-476.4 309.9,-470"/>
</a>
</g>
</g>
<!-- Node12 -->
<g id="Node000012" class="node">
<title>Node12</title>
<g id="a_Node000012"><a xlink:href="classilds_1_1VdCorput.html" target="_top" xlink:title=" ">
<polygon fill="white" stroke="#666666" points="497,-497 360,-497 360,-478 497,-478 497,-497"/>
<text text-anchor="middle" x="428.5" y="-485" font-family="Helvetica,sans-Serif" font-size="10.00">ilds::VdCorput&lt; Base2 &gt;</text>
</a>
</g>
</g>
<!-- Node10&#45;&gt;Node12 -->
<g id="edge12_Node000010_Node000012" class="edge">
<title>Node10&#45;&gt;Node12</title>
<g id="a_edge12_Node000010_Node000012"><a xlink:title=" ">
<path fill="none" stroke="#63b8ff" d="M327.56,-467.41C345.81,-471.08 364.19,-474.77 380.13,-477.98"/>
<polygon fill="#63b8ff" stroke="#63b8ff" points="328.24,-463.98 317.74,-465.44 326.86,-470.84 328.24,-463.98"/>
</a>
</g>
</g>
<!-- Node14 -->
<g id="Node000014" class="node">
<title>Node14</title>
<g id="a_Node000014"><a xlink:href="classlds_1_1VdCorput.html" target="_top" xlink:title=" ">
<polygon fill="white" stroke="#666666" points="483.5,-460 373.5,-460 373.5,-441 483.5,-441 483.5,-460"/>
<text text-anchor="middle" x="428.5" y="-448" font-family="Helvetica,sans-Serif" font-size="10.00">lds::VdCorput&lt; 2 &gt;</text>
</a>
</g>
</g>
<!-- Node13&#45;&gt;Node14 -->
<g id="edge14_Node000013_Node000014" class="edge">
<title>Node13&#45;&gt;Node14</title>
<g id="a_edge14_Node000013_Node000014"><a xlink:title=" ">
<path fill="none" stroke="#63b8ff" d="M296.82,-412.54C304.32,-414.81 311.84,-417.16 319,-419.5 335.17,-424.78 338.72,-427.56 355,-432.5 364.93,-435.52 375.73,-438.4 385.89,-440.95"/>
<polygon fill="#63b8ff" stroke="#63b8ff" points="297.6,-409.12 287.02,-409.59 295.59,-415.82 297.6,-409.12"/>
</a>
</g>
</g>
<!-- Node15 -->
<g id="Node000015" class="node">
<title>Node15</title>
<g id="a_Node000015"><a xlink:href="classlds_1_1VdCorput.html" target="_top" xlink:title=" ">
<polygon fill="white" stroke="#666666" points="483.5,-423 373.5,-423 373.5,-404 483.5,-404 483.5,-423"/>
<text text-anchor="middle" x="428.5" y="-411" font-family="Helvetica,sans-Serif" font-size="10.00">lds::VdCorput&lt; 3 &gt;</text>
</a>
</g>
</g>
<!-- Node13&#45;&gt;Node15 -->
<g id="edge15_Node000013_Node000015" class="edge">
<title>Node13&#45;&gt;Node15</title>
<g id="a_edge15_Node000013_Node000015"><a xlink:title=" ">
<path fill="none" stroke="#63b8ff" d="M327.93,-403.75C343.48,-405.27 359.12,-406.8 373.25,-408.19"/>
<polygon fill="#63b8ff" stroke="#63b8ff" points="328.04,-400.24 317.74,-402.75 327.36,-407.21 328.04,-400.24"/>
</a>
</g>
</g>
<!-- Node16 -->
<g id="Node000016" class="node">
<title>Node16</title>
<g id="a_Node000016"><a xlink:href="classlds_1_1VdCorput.html" target="_top" xlink:title=" ">
<polygon fill="white" stroke="#666666" points="492.5,-386 364.5,-386 364.5,-367 492.5,-367 492.5,-386"/>
<text text-anchor="middle" x="428.5" y="-374" font-family="Helvetica,sans-Serif" font-size="10.00">lds::VdCorput&lt; Base &gt;</text>
</a>
</g>
</g>
<!-- Node13&#45;&gt;Node16 -->
<g id="edge16_Node000013_Node000016" class="edge">
<title>Node13&#45;&gt;Node16</title>
<g id="a_edge16_Node000013_Node000016"><a xlink:title=" ">
<path fill="none" stroke="#63b8ff" d="M328.06,-385.73C340.37,-384.58 352.74,-383.44 364.37,-382.36"/>
<polygon fill="#63b8ff" stroke="#63b8ff" points="327.38,-382.27 317.74,-386.68 328.03,-389.24 327.38,-382.27"/>
</a>
</g>
</g>
<!-- Node17 -->
<g id="Node000017" class="node">
<title>Node17</title>
<g id="a_Node000017"><a xlink:href="classlds_1_1VdCorput.html" target="_top" xlink:title=" ">
<polygon fill="white" stroke="#666666" points="483.5,-349 373.5,-349 373.5,-330 483.5,-330 483.5,-349"/>
<text text-anchor="middle" x="428.5" y="-337" font-family="Helvetica,sans-Serif" font-size="10.00">lds::VdCorput&lt; 5 &gt;</text>
</a>
</g>
</g>
<!-- Node13&#45;&gt;Node17 -->
<g id="edge17_Node000013_Node000017" class="edge">
<title>Node13&#45;&gt;Node17</title>
<g id="a_edge17_Node000013_Node000017"><a xlink:title=" ">
<path fill="none" stroke="#63b8ff" d="M292.83,-376.51C312.57,-370.63 334.7,-364.17 355,-358.5 366.4,-355.32 378.86,-352 390.18,-349.04"/>
<polygon fill="#63b8ff" stroke="#63b8ff" points="291.63,-373.22 283.05,-379.43 293.64,-379.92 291.63,-373.22"/>
</a>
</g>
</g>
<!-- Node19 -->
<g id="Node000019" class="node">
<title>Node19</title>
<g id="a_Node000019"><a xlink:href="classlds_1_1Circle.html" target="_top" xlink:title=" ">
<polygon fill="white" stroke="#666666" points="475,-312 382,-312 382,-293 475,-293 475,-312"/>
<text text-anchor="middle" x="428.5" y="-300" font-family="Helvetica,sans-Serif" font-size="10.00">lds::Circle&lt; 3 &gt;</text>
</a>
</g>
</g>
<!-- Node18&#45;&gt;Node19 -->
<g id="edge19_Node000018_Node000019" class="edge">
<title>Node18&#45;&gt;Node19</title>
<g id="a_edge19_Node000018_Node000019"><a xlink:title=" ">
<path fill="none" stroke="#63b8ff" d="M306.52,-308.74C331.83,-307.43 359.45,-306.01 381.9,-304.85"/>
<polygon fill="#63b8ff" stroke="#63b8ff" points="306.02,-305.26 296.22,-309.27 306.39,-312.25 306.02,-305.26"/>
</a>
</g>
</g>
<!-- Node21 -->
<g id="Node000021" class="node">
<title>Node21</title>
<g id="a_Node000021"><a xlink:href="classilds_1_1VdCorput.html" target="_top" xlink:title="van der Corput sequence generator">
<polygon fill="white" stroke="#666666" points="494,-275 363,-275 363,-256 494,-256 494,-275"/>
<text text-anchor="middle" x="428.5" y="-263" font-family="Helvetica,sans-Serif" font-size="10.00">ilds::VdCorput&lt; Base &gt;</text>
</a>
</g>
</g>
<!-- Node20&#45;&gt;Node21 -->
<g id="edge21_Node000020_Node000021" class="edge">
<title>Node20&#45;&gt;Node21</title>
<g id="a_edge21_Node000020_Node000021"><a xlink:title=" ">
<path fill="none" stroke="#63b8ff" d="M261.21,-191.73C284.94,-208.99 320.64,-232.81 355,-247.5 362.75,-250.81 371.24,-253.61 379.59,-255.93"/>
<polygon fill="#63b8ff" stroke="#63b8ff" points="263.15,-188.81 253.03,-185.69 259,-194.45 263.15,-188.81"/>
</a>
</g>
</g>
<!-- Node22 -->
<g id="Node000022" class="node">
<title>Node22</title>
<g id="a_Node000022"><a xlink:href="classlds_1_1Circle.html" target="_top" xlink:title="Circle sequence generator.">
<polygon fill="white" stroke="#666666" points="484,-238 373,-238 373,-219 484,-219 484,-238"/>
<text text-anchor="middle" x="428.5" y="-226" font-family="Helvetica,sans-Serif" font-size="10.00">lds::Circle&lt; Base &gt;</text>
</a>
</g>
</g>
<!-- Node20&#45;&gt;Node22 -->
<g id="edge22_Node000020_Node000022" class="edge">
<title>Node20&#45;&gt;Node22</title>
<g id="a_edge22_Node000020_Node000022"><a xlink:title=" ">
<path fill="none" stroke="#63b8ff" d="M286.06,-188.76C307.35,-195.9 332.24,-203.94 355,-210.5 365.22,-213.45 376.33,-216.35 386.71,-218.94"/>
<polygon fill="#63b8ff" stroke="#63b8ff" points="287.15,-185.43 276.56,-185.54 284.91,-192.06 287.15,-185.43"/>
</a>
</g>
</g>
<!-- Node23 -->
<g id="Node000023" class="node">
<title>Node23</title>
<g id="a_Node000023"><a xlink:href="classlds_1_1Disk.html" target="_top" xlink:title="Disk sequence generator.">
<polygon fill="white" stroke="#666666" points="502,-201 355,-201 355,-182 502,-182 502,-201"/>
<text text-anchor="middle" x="428.5" y="-189" font-family="Helvetica,sans-Serif" font-size="10.00">lds::Disk&lt; Base0, Base1 &gt;</text>
</a>
</g>
</g>
<!-- Node20&#45;&gt;Node23 -->
<g id="edge23_Node000020_Node000023" class="edge">
<title>Node20&#45;&gt;Node23</title>
<g id="a_edge23_Node000020_Node000023"><a xlink:title=" ">
<path fill="none" stroke="#63b8ff" d="M304.18,-178.15C320.65,-179.93 338.22,-181.84 354.78,-183.63"/>
<polygon fill="#63b8ff" stroke="#63b8ff" points="304.4,-174.65 294.08,-177.06 303.65,-181.61 304.4,-174.65"/>
</a>
</g>
</g>
<!-- Node24 -->
<g id="Node000024" class="node">
<title>Node24</title>
<g id="a_Node000024"><a xlink:href="classlds_1_1Halton.html" target="_top" xlink:title="Halton sequence generator.">
<polygon fill="white" stroke="#666666" points="485,-163.5 372,-163.5 372,-133.5 485,-133.5 485,-163.5"/>
<text text-anchor="start" x="380" y="-151.5" font-family="Helvetica,sans-Serif" font-size="10.00">lds::Halton&lt; Base0,</text>
<text text-anchor="middle" x="428.5" y="-140.5" font-family="Helvetica,sans-Serif" font-size="10.00"> Base1 &gt;</text>
</a>
</g>
</g>
<!-- Node20&#45;&gt;Node24 -->
<g id="edge24_Node000020_Node000024" class="edge">
<title>Node20&#45;&gt;Node24</title>
<g id="a_edge24_Node000020_Node000024"><a xlink:title=" ">
<path fill="none" stroke="#63b8ff" d="M304.19,-162.48C326.52,-159.95 350.87,-157.19 371.99,-154.8"/>
<polygon fill="#63b8ff" stroke="#63b8ff" points="303.63,-159.02 294.08,-163.63 304.42,-165.98 303.63,-159.02"/>
</a>
</g>
</g>
<!-- Node25 -->
<g id="Node000025" class="node">
<title>Node25</title>
<g id="a_Node000025"><a xlink:href="classlds_1_1Sphere.html" target="_top" xlink:title="Sphere sequence generator.">
<polygon fill="white" stroke="#666666" points="486,-115.5 371,-115.5 371,-85.5 486,-85.5 486,-115.5"/>
<text text-anchor="start" x="379" y="-103.5" font-family="Helvetica,sans-Serif" font-size="10.00">lds::Sphere&lt; Base0,</text>
<text text-anchor="middle" x="428.5" y="-92.5" font-family="Helvetica,sans-Serif" font-size="10.00"> Base1 &gt;</text>
</a>
</g>
</g>
<!-- Node20&#45;&gt;Node25 -->
<g id="edge25_Node000020_Node000025" class="edge">
<title>Node20&#45;&gt;Node25</title>
<g id="a_edge25_Node000020_Node000025"><a xlink:title=" ">
<path fill="none" stroke="#63b8ff" d="M281.49,-151.8C303.76,-143.25 330.65,-133.14 355,-124.5 363.37,-121.53 372.33,-118.47 380.99,-115.57"/>
<polygon fill="#63b8ff" stroke="#63b8ff" points="280,-148.62 271.92,-155.48 282.51,-155.15 280,-148.62"/>
</a>
</g>
</g>
<!-- Node26 -->
<g id="Node000026" class="node">
<title>Node26</title>
<g id="a_Node000026"><a xlink:href="classlds_1_1Sphere3Hopf.html" target="_top" xlink:title="S(3) sequence generator by Hopf fibration.">
<polygon fill="white" stroke="#666666" points="500.5,-67.5 356.5,-67.5 356.5,-37.5 500.5,-37.5 500.5,-67.5"/>
<text text-anchor="start" x="364.5" y="-55.5" font-family="Helvetica,sans-Serif" font-size="10.00">lds::Sphere3Hopf&lt; Base0,</text>
<text text-anchor="middle" x="428.5" y="-44.5" font-family="Helvetica,sans-Serif" font-size="10.00"> Base1, Base2 &gt;</text>
</a>
</g>
</g>
<!-- Node20&#45;&gt;Node26 -->
<g id="edge26_Node000020_Node000026" class="edge">
<title>Node20&#45;&gt;Node26</title>
<g id="a_edge26_Node000020_Node000026"><a xlink:title=" ">
<path fill="none" stroke="#63b8ff" d="M257.18,-148.2C280.51,-127.24 317.93,-96.23 355,-76.5 361.2,-73.2 367.95,-70.24 374.74,-67.61"/>
<polygon fill="#63b8ff" stroke="#63b8ff" points="254.58,-145.84 249.54,-155.16 259.29,-151.01 254.58,-145.84"/>
</a>
</g>
</g>
<!-- Node27 -->
<g id="Node000027" class="node">
<title>Node27</title>
<g id="a_Node000027"><a xlink:href="classlds_1_1VdCorput.html" target="_top" xlink:title="van der Corput sequence generator">
<polygon fill="white" stroke="#666666" points="492.5,-19 364.5,-19 364.5,0 492.5,0 492.5,-19"/>
<text text-anchor="middle" x="428.5" y="-7" font-family="Helvetica,sans-Serif" font-size="10.00">lds::VdCorput&lt; Base &gt;</text>
</a>
</g>
</g>
<!-- Node20&#45;&gt;Node27 -->
<g id="edge27_Node000020_Node000027" class="edge">
<title>Node20&#45;&gt;Node27</title>
<g id="a_edge27_Node000020_Node000027"><a xlink:title=" ">
<path fill="none" stroke="#63b8ff" d="M247.31,-146.76C267.07,-114.93 306.45,-58.92 355,-28.5 361.17,-24.63 368.12,-21.55 375.2,-19.09"/>
<polygon fill="#63b8ff" stroke="#63b8ff" points="244.24,-145.06 242.04,-155.43 250.23,-148.7 244.24,-145.06"/>
</a>
</g>
</g>
</g>
</svg>
